<?xml version="1.0" standalone="no"?>
<!DOCTYPE svg PUBLIC "-//W3C//DTD SVG 20010904//EN"
 "http://www.w3.org/TR/2001/REC-SVG-20010904/DTD/svg10.dtd">
<svg version="1.0" xmlns="http://www.w3.org/2000/svg"
 width="512.000000pt" height="512.000000pt" viewBox="0 0 512.000000 512.000000"
 preserveAspectRatio="xMidYMid meet">
<metadata>
Created by potrace 1.11, written by Peter Selinger 2001-2013
</metadata>
<g transform="translate(0.000000,512.000000) scale(0.100000,-0.100000)"
fill="#000000" stroke="none">
<path d="M2739 4114 l-194 -194 -600 0 c-330 -1 -624 0 -654 0 l-53 0 165 166
c149 148 165 168 154 185 -6 10 -17 19 -24 19 -6 0 -94 -83 -196 -185 l-183
-184 -189 189 -189 189 -23 -21 -23 -22 189 -189 190 -190 -320 -320 c-257
-257 -322 -317 -333 -308 -8 7 -93 91 -190 189 l-176 176 -22 -22 -23 -22 189
-189 189 -189 -186 -188 -187 -187 22 -18 c11 -11 22 -19 24 -19 1 0 85 83
186 184 l183 185 327 -327 328 -327 -186 -186 -186 -187 21 -21 21 -21 187
185 187 186 325 -325 326 -326 -184 -184 c-172 -172 -182 -184 -170 -205 8
-11 18 -21 24 -21 5 0 92 82 192 182 l183 183 326 -326 325 -325 -180 -181
c-100 -100 -181 -188 -181 -195 0 -7 8 -18 18 -25 17 -10 41 11 203 173 l184
184 186 -186 c135 -135 192 -185 203 -181 43 17 28 38 -158 225 l-186 187 317
317 c175 175 322 317 326 315 5 -1 92 -85 193 -187 l184 -184 20 24 21 24
-188 188 -188 188 680 680 c374 374 684 680 690 680 5 0 93 -83 194 -184 174
-174 184 -183 202 -168 11 9 19 20 19 24 0 4 -84 91 -186 194 l-186 187 186
186 c180 180 186 188 168 204 -10 9 -22 17 -26 17 -4 0 -83 -75 -175 -167 -92
-93 -175 -174 -184 -181 -14 -12 -56 27 -340 311 l-324 325 185 186 186 186
-22 22 -22 23 -183 -183 c-100 -100 -186 -182 -190 -182 -4 0 -85 77 -178 171
-165 166 -171 171 -195 158 -13 -7 -23 -17 -21 -22 1 -4 77 -82 167 -173 l165
-164 -629 0 c-584 0 -627 1 -615 17 8 9 83 85 167 169 83 84 152 156 152 162
0 5 -8 16 -18 25 -17 15 -29 5 -213 -179z"/>
</g>
</svg>
